<?xml version="1.0"?><svg width="793.701" height="1122.52" xmlns="http://www.w3.org/2000/svg">
 <metadata id="metadata18081">image/svg+xmlPublic Domainclker.comMohamed Ibrahimmap symbolsmap symbols</metadata>

 <g>
  <title>Layer 1</title>
  <path d="m120.796997,231.819c-35.4702,0 -64.371597,28.902008 -64.371597,64.437012l0,494.084015c0,35.469971 28.901398,64.370972 64.371597,64.370972l494.083984,0c35.470032,0 64.371033,-28.901001 64.371033,-64.370972l0,-494.084015c0,-35.535004 -28.901001,-64.437012 -64.371033,-64.437012l-494.083984,0z" fill="#ffffff" id="path7146"/>
  <path d="m614.880981,867.848022c42.825989,0 77.574036,-34.747009 77.574036,-77.507996l0,-494.084015c0,-42.893005 -34.748047,-77.574005 -77.574036,-77.574005l-494.083984,0c-42.826698,0 -77.509098,34.681 -77.509098,77.574005l0,494.084015c0,42.760986 34.6824,77.507996 77.509098,77.507996l494.083984,0z" fill="#ff7f00" id="path7148"/>
  <path d="m339.593994,447.069c0,17.144012 -15.566986,35.404999 -35.733002,35.404999l0,289.14502c0,40.987976 -56.028992,40.987976 -56.028992,0l0,-289.14502c-19.705994,0 -36.848999,-15.174011 -36.848999,-37.96701l0,-159.088989c0,-13.859009 20.033005,-14.450012 20.033005,0.524994l0,117.643005l16.75,0l19.311996,0l-1.511993,0l0,-118.562012c0,-13.267975 18.786987,-13.793976 18.786987,0.525024l0,118.036987l35.798004,0l0,-118.562012c0,-13.070984 19.442993,-13.596985 19.442993,0.525024l0,161.519989z" fill="#ffffff" id="path7150"/>
  <path d="m515.039001,322.464996l0,448.957001c0,40.200012 -56.029999,39.609009 -56.029999,0l0,-178.005981l-29.886017,0l0,-270.951019c0,-62.993011 85.916016,-62.993011 85.916016,0" fill="#ffffff" id="path7152"/>
 </g>
</svg>